<svg width="139" height="39" viewBox="0 0 139 39" fill="none" xmlns="http://www.w3.org/2000/svg">
<path d="M0.652 10.544C0.652 3.732 6.632 0.975999 12.508 0.975999C15.316 0.975999 20.516 1.496 23.168 3.264V10.44C21.868 5.916 17.708 1.6 12.404 1.6C8.296 1.6 3.824 3.576 3.824 8.256C3.824 18.136 25.196 16.992 25.196 28.744C25.196 36.388 18.54 38.572 12.144 38.572C9.232 38.572 3.304 37.896 0.652 35.608V27.912C2.056 33.788 6.424 38 12.56 38C16.876 38 21.296 35.972 21.296 30.98C21.296 19.956 0.652 21.672 0.652 10.544ZM40.8716 13.82C44.5636 13.82 47.4756 15.016 49.5036 17.044C52.5196 14.08 55.3796 10.232 57.7196 6.8C59.1236 4.772 60.3196 2.952 61.2556 1.6H61.7756V34.672C61.7756 37.272 63.3876 37.844 64.2196 37.844V38H55.5356V37.844C56.5756 37.844 57.8756 37.272 57.8756 34.672V7.632C54.7556 12.156 50.5956 17.824 45.7596 20.684C40.3516 23.908 36.6596 21.932 35.7236 19.28C35.3596 18.188 35.4636 16.992 36.0876 15.952C33.8516 17.824 32.9676 21.204 32.9676 24.428C32.9676 29.524 34.9436 37.948 41.3916 37.948C47.0076 37.948 48.9316 33.372 48.9316 28.484C48.9316 25.728 48.4636 23.024 47.4756 20.424L50.3876 18.032C52.1556 20.476 52.8316 23.284 52.8316 26.3C52.8316 33.632 48.3596 38.572 40.9236 38.572C33.4876 38.572 29.0156 33.632 29.0156 26.3C29.0156 19.176 33.5396 13.82 40.8716 13.82ZM36.3476 18.864C37.0236 21.412 40.2996 23.336 45.5516 20.216C46.0196 19.904 46.4876 19.592 46.9556 19.228C45.6556 16.576 43.5756 14.548 40.4036 14.548C39.3636 14.548 38.4276 14.704 37.6476 15.016C36.3996 16.004 35.9836 17.512 36.3476 18.864ZM69.9493 28.276C72.2893 26.404 74.5773 25.52 76.7093 24.636C81.1813 22.816 82.9493 21.568 82.8973 18.24C82.8453 15.9 81.1813 13.872 77.3333 14.392C73.9533 14.86 70.7293 18.188 68.3373 22.192V17.928C70.4173 15.224 74.2133 13.976 77.3853 13.872C83.0533 13.716 86.4333 16.16 86.4333 22.14V33.892C86.4333 35.244 86.6413 36.648 88.4613 36.596C88.8773 36.596 89.3973 36.44 89.8133 36.024V36.284C89.1893 37.376 87.7333 38.26 85.9133 38.26C83.3653 38.26 82.6893 35.972 82.6373 35.036C80.5573 37.324 78.3213 38.676 73.4333 38.572C71.6653 38.52 70.0533 38.052 69.0653 37.22C68.0253 36.336 67.5053 35.088 67.4533 33.736C67.4013 31.708 68.3893 29.524 69.9493 28.276ZM71.5613 32.8C71.5613 36.18 73.6413 37.792 75.8773 37.844C78.6853 37.948 82.5333 35.66 82.5333 33.268V22.66C77.7493 24.376 71.5613 27.132 71.5613 32.8ZM95.0523 34.88C93.2843 32.852 92.1923 29.992 92.1923 26.196C92.1923 23.96 92.6603 21.984 93.4923 20.32C95.4683 16.264 99.5763 13.872 104.256 13.872C107.48 13.872 111.172 14.548 113.148 16.836V21.776C111.588 18.604 109.248 14.496 104.984 14.444C102.696 14.392 100.096 15.536 98.5363 17.356C95.5203 20.944 95.6763 28.328 97.9123 32.384C99.7843 35.816 102.956 37.22 106.024 37.22C109.352 37.22 111.588 35.452 113.356 33.216L113.668 33.424C111.952 36.128 108.676 38.572 103.892 38.572C100.46 38.572 97.2363 37.376 95.0523 34.88ZM117.56 20.32C119.536 16.264 123.644 13.872 128.324 13.872C135.448 13.872 138.464 18.864 137.632 24.064L120.368 26.82C120.576 28.9 121.148 30.876 121.928 32.384C123.8 35.816 126.972 37.22 130.092 37.22C133.368 37.22 135.604 35.452 137.424 33.216L137.684 33.424C136.02 36.128 132.744 38.572 127.96 38.572C124.528 38.572 121.252 37.376 119.12 34.88C117.352 32.852 116.26 29.992 116.26 26.196C116.26 23.96 116.728 21.984 117.56 20.32ZM120.316 26.248L129.728 24.48C130.768 24.272 131.548 23.908 132.276 23.544C133.94 22.712 134.668 21.256 134.616 19.8C134.46 13.04 125.984 13.248 122.604 17.252C120.784 19.384 120.108 22.868 120.316 26.248Z" fill="white"/>
</svg>
